<svg width="42" height="42" viewBox="0 0 42 42" fill="none" xmlns="http://www.w3.org/2000/svg">
<mask id="mask0_7880_8566" style="mask-type:alpha" maskUnits="userSpaceOnUse" x="0" y="0" width="42" height="42">
<rect width="42" height="42" fill="#D9D9D9"/>
</mask>
<g mask="url(#mask0_7880_8566)">
<path d="M21 38.5C18.5792 38.5 16.3042 38.0403 14.175 37.121C12.0458 36.2028 10.1938 34.9563 8.61875 33.3813C7.04375 31.8063 5.79717 29.9542 4.879 27.825C3.95967 25.6958 3.5 23.4208 3.5 21C3.5 18.5792 3.95967 16.3042 4.879 14.175C5.79717 12.0458 7.04375 10.1938 8.61875 8.61875C10.1938 7.04375 12.0458 5.79658 14.175 4.87725C16.3042 3.95908 18.5792 3.5 21 3.5C23.4208 3.5 25.6958 3.95908 27.825 4.87725C29.9542 5.79658 31.8063 7.04375 33.3813 8.61875C34.9563 10.1938 36.2028 12.0458 37.121 14.175C38.0403 16.3042 38.5 18.5792 38.5 21C38.5 23.4208 38.0403 25.6958 37.121 27.825C36.2028 29.9542 34.9563 31.8063 33.3813 33.3813C31.8063 34.9563 29.9542 36.2028 27.825 37.121C25.6958 38.0403 23.4208 38.5 21 38.5ZM21 35C24.9083 35 28.2187 33.6437 30.9312 30.9312C33.6437 28.2187 35 24.9083 35 21C35 19.425 34.7445 17.9083 34.2335 16.45C33.7237 14.9917 32.9875 13.65 32.025 12.425L12.425 32.025C13.65 32.9875 14.9917 33.7237 16.45 34.2335C17.9083 34.7445 19.425 35 21 35ZM9.975 29.575L29.575 9.975C28.35 9.0125 27.0083 8.27633 25.55 7.7665C24.0917 7.2555 22.575 7 21 7C17.0917 7 13.7812 8.35625 11.0687 11.0687C8.35625 13.7812 7 17.0917 7 21C7 22.575 7.2555 24.0917 7.7665 25.55C8.27633 27.0083 9.0125 28.35 9.975 29.575Z" fill="#8B9298"/>
</g>
</svg>
