<svg width="38" height="27" viewBox="0 0 38 27" fill="none" xmlns="http://www.w3.org/2000/svg">
<path d="M18.9999 21C21.1874 21 23.0471 20.2347 24.5789 18.704C26.1096 17.1722 26.8749 15.3125 26.8749 13.125C26.8749 10.9375 26.1096 9.07783 24.5789 7.546C23.0471 6.01533 21.1874 5.25 18.9999 5.25C16.8124 5.25 14.9527 6.01533 13.4209 7.546C11.8902 9.07783 11.1249 10.9375 11.1249 13.125C11.1249 15.3125 11.8902 17.1722 13.4209 18.704C14.9527 20.2347 16.8124 21 18.9999 21ZM18.9999 17.85C17.6874 17.85 16.5721 17.3903 15.6539 16.471C14.7346 15.5528 14.2749 14.4375 14.2749 13.125C14.2749 11.8125 14.7346 10.6966 15.6539 9.77725C16.5721 8.85908 17.6874 8.4 18.9999 8.4C20.3124 8.4 21.4283 8.85908 22.3477 9.77725C23.2658 10.6966 23.7249 11.8125 23.7249 13.125C23.7249 14.4375 23.2658 15.5528 22.3477 16.471C21.4283 17.3903 20.3124 17.85 18.9999 17.85ZM18.9999 26.25C14.9457 26.25 11.2416 25.1784 7.8874 23.0352C4.53324 20.8909 1.99574 17.9958 0.274902 14.35C0.187402 14.2042 0.129069 14.0216 0.0999025 13.8022C0.0707358 13.5841 0.0561523 13.3583 0.0561523 13.125C0.0561523 12.8917 0.0707358 12.6653 0.0999025 12.446C0.129069 12.2278 0.187402 12.0458 0.274902 11.9C1.99574 8.25417 4.53324 5.35967 7.8874 3.2165C11.2416 1.07217 14.9457 0 18.9999 0C23.0541 0 26.7582 1.07217 30.1124 3.2165C33.4666 5.35967 36.0041 8.25417 37.7249 11.9C37.8124 12.0458 37.8707 12.2278 37.8999 12.446C37.9291 12.6653 37.9437 12.8917 37.9437 13.125C37.9437 13.3583 37.9291 13.5841 37.8999 13.8022C37.8707 14.0216 37.8124 14.2042 37.7249 14.35C36.0041 17.9958 33.4666 20.8909 30.1124 23.0352C26.7582 25.1784 23.0541 26.25 18.9999 26.25ZM18.9999 22.75C22.2957 22.75 25.3221 21.882 28.0789 20.146C30.8346 18.4112 32.9416 16.0708 34.3999 13.125C32.9416 10.1792 30.8346 7.83825 28.0789 6.10225C25.3221 4.36742 22.2957 3.5 18.9999 3.5C15.7041 3.5 12.6777 4.36742 9.9209 6.10225C7.16524 7.83825 5.05824 10.1792 3.5999 13.125C5.05824 16.0708 7.16524 18.4112 9.9209 20.146C12.6777 21.882 15.7041 22.75 18.9999 22.75Z" fill="#FFB68D"/>
</svg>
