<svg width="125" height="56" viewBox="0 0 125 56" fill="none" xmlns="http://www.w3.org/2000/svg">
<path opacity="0.85" fill-rule="evenodd" clip-rule="evenodd" d="M22.352 10.8697L11.6069 17.0873L0 9.30402L16.0829 0L22.352 10.8697Z" fill="#F2F2F2"/>
<path fill-rule="evenodd" clip-rule="evenodd" d="M16.0688 46.6203L28.7982 39.39V6.95382L16.0827 0L16.0688 46.6203Z" fill="#F9F9F9"/>
<path d="M42.7961 36.134C40.4956 34.793 38.7128 32.9647 37.4444 30.6525C36.176 28.3403 35.54 25.7862 35.54 22.9971C35.54 20.208 36.176 17.6608 37.4444 15.3589C38.7128 13.0606 40.499 11.2323 42.7961 9.87745C45.0932 8.52262 47.7412 7.84521 50.7368 7.84521C53.7323 7.84521 56.3838 8.52262 58.6948 9.87745C61.0057 11.2323 62.7989 13.0606 64.0673 15.3589C65.3358 17.6573 65.9717 20.2045 65.9717 22.9971C65.9717 25.7897 65.3358 28.3403 64.0673 30.6525C62.7989 32.9647 61.0057 34.793 58.6948 36.134C56.3838 37.4785 53.7288 38.149 50.7368 38.149C47.7447 38.149 45.0966 37.4785 42.7961 36.134ZM45.9237 14.3601C44.4537 15.2241 43.2826 16.4131 42.4138 17.9303C41.5451 19.4441 41.1107 21.1342 41.1107 22.9936C41.1107 24.8531 41.5451 26.55 42.4138 28.0777C43.2826 29.6053 44.4503 30.8046 45.9237 31.6652C47.3937 32.5292 48.9957 32.9612 50.7368 32.9612C52.4778 32.9612 54.1181 32.5292 55.588 31.6652C57.058 30.8011 58.2222 29.6053 59.0771 28.0777C59.9319 26.55 60.3594 24.8531 60.3594 22.9936C60.3594 21.1342 59.9319 19.4441 59.0771 17.9303C58.2222 16.4165 57.058 15.2241 55.588 14.3601C54.1181 13.4961 52.5021 13.064 50.7368 13.064C48.9714 13.064 47.3937 13.4961 45.9237 14.3601Z" fill="#F9F9F9"/>
<path d="M95.8436 37.5893L76.515 20.2427V34.9591C76.515 35.8094 76.2891 36.4626 75.8338 36.9119C75.3786 37.3612 74.7253 37.5893 73.8704 37.5893H70.9443V8.39844H71.5455L90.8325 26.063V11.0286C90.8325 10.1784 91.0583 9.52515 91.5136 9.07585C91.9688 8.62309 92.6222 8.39844 93.477 8.39844H96.4448V37.5893H95.8436Z" fill="#F9F9F9"/>
<path d="M102.86 8.39844H124.434V10.8696C124.434 11.668 124.208 12.2797 123.753 12.7048C123.298 13.1299 122.644 13.3442 121.789 13.3442H108.438V20.6437H121.028V22.9558C121.028 23.8061 120.802 24.4593 120.347 24.9086C119.892 25.3579 119.239 25.586 118.384 25.586H108.438V32.6435H121.751C122.526 32.6435 123.169 32.8958 123.676 33.4004C124.184 33.905 124.437 34.5444 124.437 35.3151V37.5893H102.864V8.39844H102.86Z" fill="#F9F9F9"/>
<path d="M16.0725 55.783V49.5273H19.777V50.4882H17.1672V52.0711H19.4886V53.025H17.1672V55.783H16.0725Z" fill="#F9F9F9"/>
<path d="M20.7398 55.7828H19.6208L22.7137 49.3232H22.8006L25.7857 55.7828H24.6216L24.1142 54.6699H21.2542L20.7364 55.7828H20.7398ZM21.6642 53.7783H23.725L22.7068 51.4453L21.6642 53.7783Z" fill="#F9F9F9"/>
<path d="M30.8797 55.3747C30.5982 55.5717 30.2993 55.7237 29.9761 55.8274C29.6564 55.9311 29.3263 55.983 28.9857 55.983C28.6278 55.983 28.2803 55.9242 27.9467 55.8067C27.613 55.6892 27.3072 55.5198 27.0292 55.2986C26.64 54.9841 26.3377 54.6005 26.1292 54.1443C25.9207 53.6881 25.8164 53.1904 25.8164 52.6477C25.8164 51.6904 26.1222 50.8955 26.7304 50.2595C27.3385 49.6236 28.0996 49.3091 29.0135 49.3091C29.3471 49.3091 29.6634 49.3575 29.9692 49.4542C30.275 49.551 30.5704 49.6996 30.8623 49.9001L30.7511 51.1201C30.5009 50.854 30.2368 50.6535 29.9622 50.5187C29.6877 50.3874 29.3958 50.3217 29.09 50.3217C28.4644 50.3217 27.9536 50.5395 27.554 50.9715C27.1543 51.4035 26.9562 51.96 26.9562 52.6374C26.9562 53.3148 27.1509 53.8401 27.5401 54.2652C27.9293 54.6938 28.4227 54.9046 29.0239 54.9046C29.3645 54.9046 29.6912 54.8286 30.0039 54.68C30.3167 54.5314 30.6295 54.2963 30.9457 53.9784L30.8797 55.3678V55.3747Z" fill="#F9F9F9"/>
<path d="M32.0442 55.783V49.5273H33.156V55.783H32.0442Z" fill="#F9F9F9"/>
<path d="M34.7441 55.783V49.5273H35.8458V54.8049H38.5494V55.783H34.7441Z" fill="#F9F9F9"/>
<path d="M39.3906 55.783V49.5273H40.5024V55.783H39.3906Z" fill="#F9F9F9"/>
<path d="M44.5757 50.4812V55.783H43.4637V50.4812H41.3369V49.5273H46.6851V50.4812H44.5723H44.5757Z" fill="#F9F9F9"/>
<path d="M47.5188 55.783V49.5273H48.6306V55.783H47.5188Z" fill="#F9F9F9"/>
<path d="M50.2227 55.783V49.5273H53.8854V50.4882H51.2999V52.0296H53.5205V52.9835H51.2999V54.8118H53.9271V55.783H50.2227Z" fill="#F9F9F9"/>
<path d="M54.8412 54.393C55.1817 54.6108 55.4945 54.7732 55.7795 54.8769C56.0644 54.9806 56.332 55.0324 56.5857 55.0324C56.9158 55.0324 57.1834 54.9495 57.3884 54.787C57.5935 54.6246 57.6977 54.4138 57.6977 54.1546C57.6977 53.9403 57.6282 53.7467 57.4927 53.5739C57.3572 53.4011 57.1174 53.2179 56.7733 53.014L56.3007 52.7306C55.8212 52.4472 55.4806 52.1707 55.279 51.9011C55.0775 51.6281 54.9767 51.317 54.9767 50.968C54.9767 50.4806 55.1539 50.0832 55.5049 49.7756C55.8594 49.468 56.3181 49.3159 56.8846 49.3159C57.1591 49.3159 57.4267 49.347 57.6838 49.4092C57.9445 49.4714 58.2051 49.5682 58.4657 49.6961L58.431 50.6915C58.1182 50.5221 57.8437 50.3977 57.6039 50.3182C57.3641 50.2387 57.1521 50.2007 56.9645 50.2007C56.676 50.2007 56.4467 50.2664 56.2799 50.3942C56.1131 50.5221 56.0297 50.6984 56.0297 50.9196C56.0297 51.0924 56.0888 51.2479 56.2104 51.3896C56.332 51.5313 56.5579 51.6972 56.888 51.8908L57.3433 52.1534C57.868 52.4645 58.2433 52.7721 58.4657 53.0797C58.6881 53.3873 58.7993 53.7364 58.7993 54.1338C58.7993 54.6937 58.6013 55.143 58.2086 55.4852C57.8159 55.8273 57.2877 56.0002 56.6309 56.0002C56.3285 56.0002 56.0366 55.9691 55.7517 55.9068C55.4667 55.8446 55.1956 55.7513 54.935 55.6269L54.8342 54.3965L54.8412 54.393Z" fill="#F9F9F9"/>
<path d="M62.0557 55.7828L63.3449 49.3232H63.4179L65.6663 53.8992L67.9043 49.3232H67.9738L69.2526 55.7828H68.1719L67.4873 52.2506L65.708 55.9937H65.6142L63.7654 52.2506L63.0808 55.7828H62.0557Z" fill="#F9F9F9"/>
<path d="M70.4896 55.7828H69.3706L72.4635 49.3232H72.5503L75.5355 55.7828H74.3713L73.8639 54.6699H71.0039L70.4861 55.7828H70.4896ZM71.414 53.7783H73.4747L72.4565 51.4453L71.414 53.7783Z" fill="#F9F9F9"/>
<path d="M76.1575 55.7828V49.3232H76.2756L80.3276 53.5052V49.5272H81.4049V55.9867H81.2868L77.2278 51.8048V55.7828H76.1609H76.1575Z" fill="#F9F9F9"/>
<path d="M83.1319 55.7828H82.0129L85.1058 49.3232H85.1927L88.1778 55.7828H87.0136L86.5063 54.6699H83.6462L83.1285 55.7828H83.1319ZM84.0563 53.7783H86.1171L85.0989 51.4453L84.0563 53.7783Z" fill="#F9F9F9"/>
<path d="M93.6166 51.1167C93.3213 50.8471 93.0154 50.6432 92.6992 50.5119C92.383 50.3771 92.0598 50.3114 91.7262 50.3114C91.0659 50.3114 90.5307 50.5257 90.1207 50.9577C89.7106 51.3897 89.5056 51.9531 89.5056 52.6443C89.5056 53.3356 89.7106 53.8816 90.1207 54.3068C90.5307 54.7284 91.0694 54.9392 91.7331 54.9392C91.9173 54.9392 92.1084 54.9185 92.3065 54.877C92.5046 54.8355 92.7235 54.7699 92.9598 54.6766V53.3701H91.4377V52.4093H94.0441V55.3678C93.6722 55.5752 93.29 55.7307 92.9008 55.8344C92.5115 55.9381 92.1189 55.9934 91.7262 55.9934C90.7358 55.9934 89.9295 55.6823 89.304 55.0567C88.6785 54.4312 88.3657 53.6328 88.3657 52.6547C88.3657 51.6766 88.682 50.8782 89.311 50.2492C89.94 49.6202 90.7462 49.3057 91.7227 49.3057C92.0702 49.3057 92.4073 49.3471 92.7374 49.437C93.0676 49.5234 93.3908 49.6547 93.7139 49.831L93.6132 51.1202L93.6166 51.1167Z" fill="#F9F9F9"/>
<path d="M95.3403 55.783V49.5273H99.0031V50.4882H96.4176V52.0296H98.6382V52.9835H96.4176V54.8118H99.0448V55.783H95.3403Z" fill="#F9F9F9"/>
<path d="M99.8088 55.7828L101.098 49.3232H101.171L103.419 53.8992L105.657 49.3232H105.727L107.006 55.7828H105.925L105.24 52.2506L103.461 55.9937H103.367L101.519 52.2506L100.834 55.7828H99.8088Z" fill="#F9F9F9"/>
<path d="M108.073 55.783V49.5273H111.736V50.4882H109.15V52.0296H111.371V52.9835H109.15V54.8118H111.777V55.783H108.073Z" fill="#F9F9F9"/>
<path d="M113.046 55.7828V49.3232H113.164L117.216 53.5052V49.5272H118.293V55.9867H118.175L114.116 51.8048V55.7828H113.049H113.046Z" fill="#F9F9F9"/>
<path d="M122.335 50.4812V55.783H121.223V50.4812H119.096V49.5273H124.444V50.4812H122.332H122.335Z" fill="#F9F9F9"/>
</svg>
