<svg width="24" height="24" viewBox="0 0 24 24" fill="none" xmlns="http://www.w3.org/2000/svg">
<mask id="mask0_7667_9350" style="mask-type:alpha" maskUnits="userSpaceOnUse" x="0" y="0" width="24" height="24">
<rect width="24" height="24" fill="#D9D9D9"/>
</mask>
<g mask="url(#mask0_7667_9350)">
<path d="M4.02506 20.9999C3.74173 20.9999 3.50406 20.9039 3.31206 20.7119C3.12073 20.5205 3.02506 20.2832 3.02506 19.9999C3.02506 19.7165 3.12073 19.4792 3.31206 19.2879C3.50406 19.0959 3.74173 18.9999 4.02506 18.9999H20.0251C20.3084 18.9999 20.5461 19.0959 20.7381 19.2879C20.9294 19.4792 21.0251 19.7165 21.0251 19.9999C21.0251 20.2832 20.9294 20.5205 20.7381 20.7119C20.5461 20.9039 20.3084 20.9999 20.0251 20.9999H4.02506ZM5.60006 15.7999C5.3834 15.8665 5.17506 15.8582 4.97506 15.7749C4.77506 15.6915 4.61673 15.5499 4.50006 15.3499L2.60006 12.1249C2.4334 11.8582 2.4044 11.6082 2.51306 11.3749C2.62106 11.1415 2.8334 10.9915 3.15006 10.9249C3.26673 10.8915 3.40006 10.8999 3.55006 10.9499C3.70006 10.9999 3.81673 11.0665 3.90006 11.1499L5.32506 12.3999L10.1251 11.0999L6.75006 5.37486C6.56673 5.0582 6.5334 4.75386 6.65006 4.46186C6.76673 4.17053 7.00006 3.96653 7.35006 3.84986C7.5334 3.7832 7.74173 3.77886 7.97506 3.83686C8.2084 3.89553 8.40006 3.99153 8.55006 4.12486L14.8751 9.79986L19.8751 8.44986C20.4084 8.31653 20.8917 8.42486 21.3251 8.77486C21.7584 9.12486 21.9751 9.5832 21.9751 10.1499C21.9751 10.5165 21.8627 10.8415 21.6381 11.1249C21.4127 11.4082 21.1251 11.5999 20.7751 11.6999L5.60006 15.7999Z" fill="#003549"/>
</g>
</svg>
