<svg width="24" height="24" viewBox="0 0 24 24" fill="none" xmlns="http://www.w3.org/2000/svg">
<mask id="mask0_7667_1122" style="mask-type:alpha" maskUnits="userSpaceOnUse" x="0" y="0" width="24" height="24">
<rect width="24" height="24" fill="#D9D9D9"/>
</mask>
<g mask="url(#mask0_7667_1122)">
<path d="M13.5 11C13.7833 11 14.021 10.904 14.213 10.712C14.4043 10.5207 14.5 10.2833 14.5 10V9H15.5C15.7833 9 16.0207 8.904 16.212 8.712C16.404 8.52067 16.5 8.28333 16.5 8C16.5 7.71667 16.404 7.479 16.212 7.287C16.0207 7.09567 15.7833 7 15.5 7H14.5V6C14.5 5.71667 14.4043 5.479 14.213 5.287C14.021 5.09567 13.7833 5 13.5 5C13.2167 5 12.9793 5.09567 12.788 5.287C12.596 5.479 12.5 5.71667 12.5 6V7H11.5C11.2167 7 10.9793 7.09567 10.788 7.287C10.596 7.479 10.5 7.71667 10.5 8C10.5 8.28333 10.596 8.52067 10.788 8.712C10.9793 8.904 11.2167 9 11.5 9H12.5V10C12.5 10.2833 12.596 10.5207 12.788 10.712C12.9793 10.904 13.2167 11 13.5 11ZM11.5 15H15.5C15.7833 15 16.0207 14.904 16.212 14.712C16.404 14.5207 16.5 14.2833 16.5 14C16.5 13.7167 16.404 13.479 16.212 13.287C16.0207 13.0957 15.7833 13 15.5 13H11.5C11.2167 13 10.9793 13.0957 10.788 13.287C10.596 13.479 10.5 13.7167 10.5 14C10.5 14.2833 10.596 14.5207 10.788 14.712C10.9793 14.904 11.2167 15 11.5 15ZM8 19C7.45 19 6.97933 18.8043 6.588 18.413C6.196 18.021 6 17.55 6 17V3C6 2.45 6.196 1.979 6.588 1.587C6.97933 1.19567 7.45 1 8 1H14.175C14.4417 1 14.696 1.05 14.938 1.15C15.1793 1.25 15.3917 1.39167 15.575 1.575L20.425 6.425C20.6083 6.60833 20.75 6.82067 20.85 7.062C20.95 7.304 21 7.55833 21 7.825V17C21 17.55 20.8043 18.021 20.413 18.413C20.021 18.8043 19.55 19 19 19H8ZM8 17H19V8L14 3H8V17ZM4 23C3.45 23 2.97933 22.8043 2.588 22.413C2.196 22.021 2 21.55 2 21V8C2 7.71667 2.096 7.479 2.288 7.287C2.47933 7.09567 2.71667 7 3 7C3.28333 7 3.521 7.09567 3.713 7.287C3.90433 7.479 4 7.71667 4 8V21H14C14.2833 21 14.521 21.096 14.713 21.288C14.9043 21.4793 15 21.7167 15 22C15 22.2833 14.9043 22.5207 14.713 22.712C14.521 22.904 14.2833 23 14 23H4Z" fill="#003549"/>
</g>
</svg>
